<?xml version="1.0" standalone="no"?>
<!DOCTYPE svg PUBLIC "-//W3C//DTD SVG 20010904//EN"
 "http://www.w3.org/TR/2001/REC-SVG-20010904/DTD/svg10.dtd">
<svg version="1.0" xmlns="http://www.w3.org/2000/svg"
 width="1280.000000pt" height="873.000000pt" viewBox="0 0 1280.000000 873.000000"
 preserveAspectRatio="xMidYMid meet">
<metadata>
Created by potrace 1.15, written by Peter Selinger 2001-2017
</metadata>
<g transform="translate(0.000000,873.000000) scale(0.100000,-0.100000)"
fill="#000000" stroke="none">
<path d="M2510 7813 c-19 -2 -318 -52 -665 -109 -346 -58 -846 -135 -1110
-172 l-480 -67 4 -205 c2 -116 8 -210 13 -217 12 -15 58 -17 58 -3 0 6 30 10
69 10 l70 0 5 -42 c14 -109 116 -2184 116 -2352 0 -69 1 -72 34 -98 44 -35
168 -108 239 -141 31 -14 125 -70 209 -125 84 -54 268 -172 408 -262 140 -89
337 -220 436 -291 100 -71 191 -129 203 -129 12 0 124 -69 249 -153 143 -96
237 -153 255 -154 15 -1 37 -2 50 -3 12 -1 213 60 447 135 591 189 1078 339
2145 660 506 152 922 278 924 280 2 2 7 298 12 657 8 649 23 1421 35 1886 l7
242 127 0 c99 0 130 3 140 14 18 23 2 452 -18 468 -10 9 -84 15 -236 20 -283
10 -365 20 -387 47 -18 22 -64 28 -234 31 -181 3 -196 2 -202 -20 -5 -19 -14
-20 -137 -20 -274 0 -1080 31 -1173 46 -19 3 -34 12 -38 23 -9 28 -78 35 -456
47 -221 6 -237 6 -247 -11 -9 -17 -26 -18 -343 -6 -184 6 -370 13 -414 15 -44
2 -96 2 -115 -1z" fill="#68440f"/>
<path d="M10815 5330 c-22 -10 -4207 -720 -4243 -720 -14 0 -26 -8 -31 -22 -5
-13 -10 -117 -12 -232 l-4 -209 45 -12 c25 -7 70 -20 101 -29 l56 -16 6 -537
c12 -1048 30 -2298 32 -2301 2 -2 142 -33 312 -68 169 -36 337 -73 373 -84 36
-10 250 -55 475 -100 979 -195 1779 -362 1839 -384 95 -36 287 -85 374 -96 42
-6 187 -33 322 -61 152 -32 260 -49 285 -46 28 3 60 19 106 53 36 27 316 229
622 449 l555 400 6 40 c3 22 8 423 11 890 3 468 8 1072 12 1343 6 446 8 492
22 486 28 -12 85 -15 101 -5 12 9 16 48 18 224 l3 213 -43 29 c-24 15 -72 49
-108 75 -36 27 -87 59 -115 71 -71 34 -469 270 -477 285 -10 16 -179 124 -247
159 -29 14 -123 69 -208 121 -84 52 -157 94 -161 93 -4 0 -16 -4 -27 -9z" fill="#6F4E37"/>
</g>
</svg>
